<svg width="13" height="13" viewBox="0 0 13 13" fill="none" xmlns="http://www.w3.org/2000/svg">
<path fill-rule="evenodd" clip-rule="evenodd" d="M2.33313 12.3242H10.3738C11.4898 12.3242 12.3926 11.4214 12.3926 10.3053V2.26477C12.3926 1.15363 11.4848 0.24585 10.3738 0.24585H2.33313C1.22199 0.24585 0.314209 1.15363 0.314209 2.26477V10.3053C0.314209 11.4165 1.22199 12.3242 2.33313 12.3242ZM10.0617 3.08566C10.3904 3.08566 10.6569 2.81917 10.6569 2.4904C10.6569 2.16163 10.3904 1.89514 10.0617 1.89514C9.73298 1.89514 9.46648 2.16163 9.46648 2.4904C9.46648 2.81917 9.73298 3.08566 10.0617 3.08566ZM6.35793 9.38829C5.52954 9.38829 4.75077 9.06595 4.16543 8.48061C3.58019 7.89527 3.25774 7.1165 3.25774 6.28811C3.25774 5.45972 3.58019 4.68095 4.16543 4.09571C4.75077 3.51037 5.52954 3.18793 6.35793 3.18793C7.18632 3.18793 7.96508 3.51037 8.55033 4.09571C9.13567 4.68095 9.45811 5.45972 9.45811 6.28811C9.45811 7.1165 9.13567 7.89527 8.55033 8.48061C7.96012 9.06595 7.18632 9.38829 6.35793 9.38829ZM6.35793 3.8477C5.01367 3.8477 3.91742 4.93889 3.91742 6.28811C3.91742 7.63237 5.00871 8.72862 6.35793 8.72862C7.70219 8.72862 8.79834 7.63733 8.79834 6.28811C8.79347 4.94385 7.70219 3.8477 6.35793 3.8477Z" fill="white"/>
</svg>
