<svg width="109" height="25" viewBox="0 0 109 25" fill="none" xmlns="http://www.w3.org/2000/svg">
<g id="MASTERCARD.svg">
<path id="Vector" d="M49.2897 15.2566V11.8466C49.2897 10.5599 48.4732 9.69385 47.1592 9.68245C46.785 9.65815 46.4111 9.73518 46.0766 9.90549C45.7421 10.0758 45.4591 10.3332 45.2572 10.6509C45.0733 10.3427 44.81 10.09 44.4951 9.91963C44.1803 9.74917 43.8255 9.66721 43.4683 9.68245C43.1572 9.66737 42.8475 9.73409 42.5698 9.87596C42.2923 10.0179 42.0563 10.2302 41.8851 10.4917V9.80979H40.7068V15.2566H41.8964V12.2399C41.8964 11.2942 42.4166 10.7941 43.2218 10.7941C44.0269 10.7941 44.4001 11.3056 44.4001 12.2285V15.2566H45.5829V12.2399C45.5829 11.2942 46.1257 10.7941 46.9082 10.7941C47.6907 10.7941 48.0978 11.3056 48.0978 12.2285V15.2566H49.2897ZM66.8919 9.81432H64.9673V8.16391H63.7777V9.81432H62.6785V10.8964H63.7777V13.3765C63.7777 14.6405 64.2639 15.393 65.6571 15.393C66.1774 15.3946 66.6877 15.2488 67.1294 14.9723L66.7902 13.9585C66.474 14.1478 66.1153 14.2534 65.7476 14.2654C65.1595 14.2654 64.965 13.9017 64.965 13.3561V10.8964H66.8896L66.8919 9.81432ZM76.9403 9.67792C76.653 9.66948 76.3688 9.73917 76.1176 9.87963C75.8664 10.0201 75.6576 10.226 75.5132 10.4759V9.81432H74.3462V15.2566H75.5246V12.2058C75.5246 11.2965 75.909 10.8055 76.6802 10.8055C76.9326 10.8018 77.1831 10.8481 77.4176 10.9419L77.7794 9.82572C77.51 9.72885 77.2263 9.67893 76.9403 9.67792ZM61.749 10.2463C61.0819 9.84783 60.3149 9.65057 59.5393 9.67792C58.1688 9.67792 57.2778 10.3395 57.2778 11.4193C57.2778 12.3081 57.9336 12.8537 59.1458 13.0242L59.7 13.1037C60.3445 13.1947 60.6521 13.3651 60.6521 13.6721C60.6521 14.0926 60.2224 14.3336 59.4172 14.3336C58.7677 14.3543 58.1302 14.1541 57.6079 13.7653L57.0719 14.6859C57.7582 15.1682 58.5803 15.416 59.4172 15.393C60.9801 15.393 61.8869 14.6518 61.8869 13.6175C61.8869 12.6605 61.1723 12.1603 59.9962 11.9899L59.4422 11.9103C58.9333 11.8421 58.5239 11.7398 58.5239 11.3761C58.5239 10.9783 58.9084 10.7395 59.5552 10.7395C60.1478 10.7483 60.7285 10.9087 61.2424 11.2056L61.749 10.2463ZM93.3031 9.67792C93.0156 9.66948 92.732 9.73917 92.4805 9.87963C92.2297 10.0201 92.0203 10.226 91.8758 10.4759V9.81432H90.7094V15.2566H91.8875V12.2058C91.8875 11.2965 92.2719 10.8055 93.0429 10.8055C93.2953 10.8018 93.5461 10.8481 93.7804 10.9419L94.1421 9.82572C93.8726 9.72885 93.589 9.67893 93.3031 9.67792ZM78.1299 12.5354C78.1299 14.1858 79.2747 15.393 81.0184 15.393C81.7254 15.4281 82.4199 15.1962 82.9652 14.7427L82.3996 13.7857C81.9925 14.0975 81.4957 14.2689 80.984 14.2745C80.0434 14.2745 79.3536 13.5789 79.3536 12.5331C79.3536 11.4875 80.0457 10.8032 80.984 10.7919C81.4957 10.7974 81.9925 10.9688 82.3996 11.2806L82.9652 10.3235C82.4199 9.8701 81.7254 9.63823 81.0184 9.67339C79.2747 9.67339 78.1299 10.8805 78.1299 12.5309V12.5354ZM89.1618 12.5354V9.80752H87.9838V10.469C87.783 10.2084 87.5228 10 87.2252 9.86119C86.9283 9.72237 86.6018 9.65722 86.2744 9.67112C84.7565 9.67112 83.5605 10.8669 83.5605 12.5286C83.5605 14.1903 84.7495 15.3861 86.2744 15.3861C86.6018 15.4 86.9283 15.3348 87.2252 15.196C87.5228 15.0572 87.783 14.8488 87.9838 14.5882V15.2474H89.1618V12.5354ZM84.7792 12.5354C84.7792 11.5784 85.401 10.7941 86.4213 10.7941C87.3955 10.7941 88.0517 11.5465 88.0517 12.5354C88.0517 13.5243 87.3955 14.2767 86.4213 14.2767C85.401 14.2767 84.7792 13.4902 84.7792 12.5354ZM70.5626 9.67792C68.9794 9.67792 67.8667 10.8396 67.8667 12.5354C67.8667 14.2654 69.0224 15.393 70.6417 15.393C71.4503 15.4214 72.2409 15.1494 72.8626 14.6291L72.2859 13.7516C71.8361 14.1134 71.2788 14.3135 70.7028 14.3199C69.9429 14.3199 69.2531 13.9676 69.0835 12.9878H73.1046C73.1159 12.8401 73.1272 12.6923 73.1272 12.5331C73.1272 10.8373 72.0733 9.67565 70.5558 9.67565L70.5626 9.67792ZM70.5399 10.7373C71.2999 10.7373 71.7861 11.2147 71.9105 12.0581H69.1038C69.2281 11.2715 69.7031 10.7373 70.5422 10.7373H70.5399ZM100.088 12.5354V7.62744H98.9099V10.4736C98.7092 10.213 98.449 10.0045 98.1514 9.86572C97.8537 9.72698 97.528 9.66175 97.1998 9.67565C95.6827 9.67565 94.4859 10.8714 94.4859 12.5331C94.4859 14.1949 95.6757 15.3906 97.1998 15.3906C97.528 15.4045 97.8537 15.3394 98.1514 15.2005C98.449 15.0617 98.7092 14.8533 98.9099 14.5927V15.2519H100.088V12.5354ZM101.465 14.7541C101.512 14.7539 101.558 14.7632 101.601 14.7814C101.643 14.7991 101.68 14.8246 101.712 14.8564C101.743 14.8877 101.769 14.9247 101.786 14.9655C101.804 15.0079 101.814 15.0535 101.814 15.0997C101.814 15.1458 101.804 15.1914 101.786 15.2338C101.768 15.2746 101.743 15.3116 101.712 15.3429C101.68 15.3746 101.643 15.4001 101.601 15.418C101.558 15.4363 101.512 15.4456 101.465 15.4452C101.397 15.4461 101.329 15.4265 101.271 15.3889C101.213 15.3512 101.168 15.2973 101.14 15.2338C101.122 15.1914 101.112 15.1458 101.112 15.0997C101.112 15.0536 101.122 15.008 101.14 14.9655C101.175 14.8821 101.242 14.8159 101.325 14.7814C101.371 14.7623 101.42 14.753 101.47 14.7541H101.465ZM101.465 15.3679C101.501 15.3685 101.536 15.3615 101.569 15.3475C101.6 15.3339 101.629 15.3146 101.653 15.2906C101.704 15.2399 101.732 15.1712 101.732 15.0997C101.732 15.0281 101.704 14.9595 101.653 14.9088C101.629 14.8846 101.6 14.8653 101.569 14.8519C101.536 14.838 101.501 14.831 101.465 14.8314C101.429 14.8309 101.393 14.8379 101.359 14.8519C101.318 14.8692 101.283 14.8962 101.256 14.9304C101.228 14.9647 101.209 15.0052 101.2 15.0484C101.192 15.0916 101.194 15.1363 101.207 15.1786C101.22 15.2208 101.243 15.2592 101.273 15.2906C101.298 15.3149 101.327 15.3342 101.359 15.3475C101.394 15.3621 101.432 15.3691 101.47 15.3679H101.465ZM101.486 14.936C101.52 14.9336 101.554 14.9433 101.581 14.9633C101.592 14.9722 101.6 14.9837 101.607 14.9967C101.612 15.0098 101.615 15.024 101.615 15.0383C101.615 15.0506 101.613 15.0628 101.608 15.0742C101.604 15.0855 101.597 15.0958 101.587 15.1042C101.567 15.1227 101.54 15.134 101.513 15.136L101.617 15.2566H101.536L101.438 15.136H101.407V15.2566H101.339V14.9383L101.486 14.936ZM101.407 14.9951V15.0815H101.486C101.5 15.0856 101.515 15.0856 101.529 15.0815C101.534 15.078 101.538 15.0732 101.541 15.0677C101.543 15.0621 101.545 15.0559 101.544 15.0497C101.545 15.0434 101.543 15.0373 101.541 15.0316C101.538 15.0261 101.534 15.0213 101.529 15.0178C101.515 15.0137 101.5 15.0137 101.486 15.0178L101.407 14.9951ZM95.7093 12.5354C95.7093 11.5784 96.3311 10.7941 97.3514 10.7941C98.3264 10.7941 98.9818 11.5465 98.9818 12.5354C98.9818 13.5243 98.3264 14.2767 97.3514 14.2767C96.3311 14.2767 95.7093 13.4902 95.7093 12.5354ZM55.9276 12.5354V9.80752H54.7493V10.469C54.5483 10.2106 54.2891 10.0042 53.9929 9.86658C53.6967 9.72901 53.3722 9.66432 53.0463 9.67792C51.5287 9.67792 50.3323 10.8737 50.3323 12.5354C50.3323 14.1972 51.5219 15.393 53.0463 15.393C53.3739 15.4068 53.7002 15.3416 53.9976 15.2028C54.2951 15.064 54.5551 14.8556 54.7561 14.595V15.2543H55.9344L55.9276 12.5354ZM51.5445 12.5354C51.5445 11.5784 52.1665 10.7941 53.1864 10.7941C54.1612 10.7941 54.8171 11.5465 54.8171 12.5354C54.8171 13.5243 54.1612 14.2767 53.1864 14.2767C52.1665 14.2767 51.5445 13.4925 51.5445 12.5354Z" fill="white"/>
<path id="Vector_2" d="M18.5479 6.06543H25.672V18.9344H18.5479V6.06543Z" fill="#FF5F00"/>
<path id="Vector_3" d="M18.9998 12.5029C18.9988 11.2638 19.2783 10.0406 19.8171 8.92602C20.3558 7.81147 21.1398 6.83468 22.1095 6.0696C20.9085 5.12078 19.4659 4.53077 17.947 4.367C16.4281 4.20322 14.8939 4.47228 13.5199 5.14345C12.146 5.81461 10.9875 6.86078 10.177 8.16238C9.3666 9.46397 8.93677 10.9685 8.93677 12.5041C8.93677 14.0396 9.3666 15.5442 10.177 16.8457C10.9875 18.1474 12.146 19.1936 13.5199 19.8647C14.8939 20.5359 16.4281 20.8049 17.947 20.6412C19.4659 20.4774 20.9085 19.8874 22.1095 18.9386C21.1395 18.1733 20.3554 17.1961 19.8165 16.0811C19.2778 14.9661 18.9985 13.7425 18.9998 12.5029Z" fill="#EB001B"/>
<path id="Vector_4" d="M35.2836 12.5032C35.2835 14.0389 34.8537 15.5435 34.0431 16.8452C33.2325 18.1468 32.0739 19.193 30.6997 19.864C29.3255 20.5351 27.7912 20.804 26.2722 20.64C24.7531 20.476 23.3107 19.8857 22.1096 18.9366C23.079 18.1708 23.8628 17.1938 24.4016 16.0791C24.9405 14.9645 25.2206 13.7414 25.2206 12.5021C25.2206 11.2628 24.9405 10.0397 24.4016 8.92505C23.8628 7.81043 23.079 6.83338 22.1096 6.06761C23.3108 5.11839 24.7535 4.52806 26.2728 4.36414C27.792 4.20021 29.3265 4.4693 30.7007 5.14064C32.075 5.81198 33.2335 6.85847 34.044 8.16047C34.8544 9.46246 35.284 10.9674 35.2836 12.5032ZM34.5011 17.5704V17.3066H34.6074V17.2544H34.3428V17.3089H34.449V17.5726L34.5011 17.5704ZM35.0235 17.5704V17.2521H34.9534L34.8584 17.4794L34.7634 17.2521H34.6797V17.5704H34.7272V17.3316L34.8154 17.5385H34.8765L34.9647 17.3316V17.5726L35.0235 17.5704Z" fill="#F79E1B"/>
</g>
</svg>
