<svg width="13" height="15" viewBox="0 0 13 15" fill="none" xmlns="http://www.w3.org/2000/svg">
<path d="M9.58324 0.975952L9.24329 0.439941H7.18584V5.26783L7.17883 9.98364C7.18234 10.0188 7.18584 10.0573 7.18584 10.0923C7.18584 11.273 6.22551 12.2365 5.04092 12.2365C3.85623 12.2365 2.8959 11.2765 2.8959 10.0923C2.8959 8.91162 3.85623 7.94808 5.04092 7.94808C5.28621 7.94808 5.52458 7.99362 5.74535 8.07077V5.71637C5.51758 5.67775 5.2827 5.65673 5.04092 5.65673C2.59798 5.66023 0.607178 7.65035 0.607178 10.0958C0.607178 12.5413 2.59798 14.5313 5.04442 14.5313C7.49077 14.5313 9.48157 12.5413 9.48157 10.0958V4.48654C10.3683 5.37301 11.5144 6.23837 12.7832 6.51519V4.10815C11.4058 3.49858 10.0354 1.6977 9.58324 0.975952Z" fill="white"/>
</svg>
