<svg width="40" height="25" viewBox="0 0 40 25" fill="none" xmlns="http://www.w3.org/2000/svg">
<g clip-path="url(#clip0_215_471)">
<mask id="mask0_215_471" style="mask-type:luminance" maskUnits="userSpaceOnUse" x="0" y="6" width="40" height="13">
<path d="M39.9999 6.25049H0.939941V18.7497H39.9999V6.25049Z" fill="white"/>
</mask>
<g mask="url(#mask0_215_471)">
<path d="M39.9999 18.5484H37.0593C36.9519 18.0367 36.8366 17.5356 36.745 17.031C36.7075 16.8211 36.6398 16.7397 36.4034 16.7454C35.2242 16.7604 34.045 16.7569 32.8659 16.7454C32.6871 16.7454 32.6165 16.8025 32.5617 16.9639C32.3996 17.4449 32.2222 17.9218 32.0399 18.3956C32.0154 18.4606 31.934 18.5492 31.8777 18.5492C30.8146 18.5584 29.7522 18.5563 28.6588 18.5563C28.8578 18.0809 29.0466 17.6284 29.2354 17.1745C30.6077 13.9364 31.9794 10.6995 33.3502 7.46386C33.6472 6.75939 34.0948 6.46462 34.8581 6.46462H37.4391C37.5249 6.86004 37.6106 7.24974 37.6928 7.63874C38.3693 10.8382 39.044 14.038 39.7167 17.238C39.8032 17.6484 39.9055 18.0545 40.0006 18.4628L39.9999 18.5484ZM36.1511 14.2552L35.2192 9.82995L35.1817 9.82284L33.5593 14.2538L36.1511 14.2552ZM27.1899 6.25049C27.5777 6.32187 27.9691 6.38039 28.3532 6.46819C28.7035 6.54813 29.0473 6.66018 29.4199 6.7651C29.2316 7.63492 29.0481 8.4848 28.8693 9.31459C28.3777 9.17186 27.9078 9.00703 27.4278 8.90133C26.7668 8.75861 26.09 8.70221 25.4291 8.88423C25.1528 8.96219 24.8965 9.09718 24.6766 9.28037C24.3163 9.58801 24.3091 10.0313 24.6558 10.351C24.9032 10.5687 25.173 10.7601 25.4608 10.922C26.1044 11.3052 26.7798 11.6358 27.4068 12.0475C28.1435 12.5294 28.6804 13.1896 28.7936 14.0882C28.9925 15.6727 28.4008 16.9211 27.0573 17.804C26.2118 18.3592 25.2554 18.607 24.2586 18.699C22.8795 18.828 21.4882 18.6718 20.1733 18.24C20.084 18.2115 19.9975 18.1751 19.9103 18.1394C19.8795 18.1241 19.8501 18.1062 19.8223 18.0859C20.0097 17.2151 20.1978 16.3429 20.391 15.4451C20.6181 15.5428 20.8307 15.6413 21.0483 15.7305C22.0869 16.1445 23.1602 16.3344 24.2716 16.1281C24.5683 16.0694 24.8503 15.9529 25.1012 15.7855C25.633 15.4322 25.6843 14.7684 25.2 14.353C24.8813 14.0803 24.4986 13.8791 24.136 13.6606C23.5645 13.3245 22.962 13.0311 22.4258 12.65C21.7381 12.1596 21.2408 11.508 21.1464 10.6372C21.0023 9.33529 21.4923 8.28184 22.5014 7.45815C23.3786 6.7444 24.4208 6.42678 25.5286 6.29331C25.5904 6.28251 25.6515 6.26821 25.7116 6.25049H27.1899ZM15.7551 6.47532C15.59 6.86931 15.4336 7.24474 15.2751 7.61732C13.7625 11.1937 12.2515 14.7698 10.7422 18.3457C10.6702 18.5163 10.5829 18.5599 10.4086 18.5599C9.45283 18.552 8.4978 18.5492 7.5428 18.5599C7.34027 18.5599 7.27396 18.4928 7.22783 18.3128C6.4177 15.1895 5.59171 12.0675 4.79094 8.94063C4.6468 8.36965 4.35057 7.97491 3.79919 7.73438C2.91501 7.3606 1.99826 7.06746 1.06031 6.85861L0.939941 6.82862C0.944266 6.46462 0.944266 6.46462 1.29311 6.46462H6.30742C7.10025 6.46462 7.67253 6.9207 7.82101 7.69797C8.24698 9.89916 8.66213 12.1032 9.0845 14.3016C9.10254 14.3979 9.1234 14.4936 9.15153 14.6292C9.1948 14.5486 9.22363 14.5036 9.24449 14.4543C10.2815 11.8534 11.3172 9.25225 12.3517 6.6509C12.4079 6.50815 12.4771 6.46033 12.6321 6.46176C13.6022 6.46961 14.5716 6.46176 15.541 6.46605C15.6038 6.46462 15.6664 6.47175 15.7551 6.47532ZM14.4902 18.5556C15.363 14.5143 16.2301 10.5016 17.0993 6.47889H20.2664C20.1344 7.09129 20.0054 7.69226 19.8757 8.29325C19.1588 11.616 18.443 14.939 17.7286 18.2622C17.6788 18.4935 17.5966 18.567 17.3544 18.562C16.4896 18.5456 15.6181 18.5556 14.7497 18.5556H14.4902Z" fill="white"/>
</g>
</g>
<defs>
<clipPath id="clip0_215_471">
<rect width="39.06" height="24.9984" fill="white" transform="translate(0.939941 0.000976562)"/>
</clipPath>
</defs>
</svg>
